<svg xmlns="http://www.w3.org/2000/svg" width="67.629" height="67.859" viewBox="0 0 67.629 67.859">
  <g id="bank" transform="translate(-1.125 -1.01)">
    <path id="Path_570" data-name="Path 570" d="M33.779,1.01,1.125,16.732v8.18H68.754V16.688ZM64.245,20.4H5.634v-.838L33.845,5.981l30.4,13.626Z" transform="translate(0)" fill="#fff"/>
    <path id="Path_571" data-name="Path 571" d="M3.375,28.688H61.987V33.2H3.375Z" transform="translate(2.259 27.784)" fill="#fff"/>
    <path id="Path_572" data-name="Path 572" d="M1.125,32.625H68.754v4.509H1.125Z" transform="translate(0 31.736)" fill="#fff"/>
    <path id="Path_573" data-name="Path 573" d="M3.938,15.188H8.447V37.731H3.938Z" transform="translate(2.824 14.232)" fill="#fff"/>
    <path id="Path_574" data-name="Path 574" d="M29.813,15.188h4.509V37.731H29.813Z" transform="translate(28.797 14.232)" fill="#fff"/>
    <path id="Path_575" data-name="Path 575" d="M23.063,15.188h4.509V37.731H23.063Z" transform="translate(22.022 14.232)" fill="#fff"/>
    <path id="Path_576" data-name="Path 576" d="M10.688,15.188H15.2V37.731H10.688Z" transform="translate(9.599 14.232)" fill="#fff"/>
    <path id="Path_577" data-name="Path 577" d="M16.875,15.188h4.509V37.731H16.875Z" transform="translate(15.81 14.232)" fill="#fff"/>
  </g>
</svg>
