<svg id="design" xmlns="http://www.w3.org/2000/svg" width="52.157" height="52.157" viewBox="0 0 52.157 52.157">
  <g id="Boundary" fill="#fff" stroke="rgba(0,0,0,0)" stroke-width="1" opacity="0">
    <rect width="52.157" height="52.157" stroke="none"/>
    <rect x="0.5" y="0.5" width="51.157" height="51.157" fill="none"/>
  </g>
  <path id="Path_palette-swatch-outline" data-name="Path / palette-swatch-outline" d="M3.953,39.31l2.825,1.3V21.055L1.562,33.66a4.331,4.331,0,0,0,2.391,5.65m27.6-32.164L42.418,33.225l-15.864,6.52L15.688,13.883v-.217l15.864-6.52M31.77,2.8a4.785,4.785,0,0,0-1.739.217L13.949,9.754a4.293,4.293,0,0,0-2.608,3.912,5.4,5.4,0,0,0,.217,1.739L22.425,41.266a3.979,3.979,0,0,0,3.912,2.608,4.785,4.785,0,0,0,1.739-.217L44.157,36.92a4.411,4.411,0,0,0,2.391-5.65L35.682,5.408A4.177,4.177,0,0,0,31.77,2.8M21.338,18.23a2.053,2.053,0,0,1-2.173-2.173,2.053,2.053,0,0,1,2.173-2.173,2.173,2.173,0,1,1,0,4.346m-10,21.515a4.359,4.359,0,0,0,4.346,4.346H18.73L11.341,26.053Z" transform="translate(3.084 3.72)" fill="#fff"/>
</svg>
