<svg id="support" xmlns="http://www.w3.org/2000/svg" width="51.59" height="51.59" viewBox="0 0 51.59 51.59">
  <g id="Boundary" fill="#fff" stroke="rgba(0,0,0,0)" stroke-width="1" opacity="0">
    <rect width="51.59" height="51.59" stroke="none"/>
    <rect x="0.5" y="0.5" width="50.59" height="50.59" fill="none"/>
  </g>
  <path id="Path_face-agent" data-name="Path / face-agent" d="M37.941,28.371a15.586,15.586,0,0,0,.516-10.34,19.443,19.443,0,0,1-4.385.494,19.5,19.5,0,0,1-15.95-8.254A19.8,19.8,0,0,1,7.954,20.762a10.819,10.819,0,0,0-.086,1.677A15.605,15.605,0,0,0,29.88,36.69c1.225,2.343,1.784,3.5,1.741,3.5A27.989,27.989,0,0,1,23.5,41.957,19.526,19.526,0,0,1,4.859,28.307H2V18.526H4.343A19.541,19.541,0,0,1,37.3,8.638a19.327,19.327,0,0,1,5.309,9.888h2.386v9.652h0v.129h-.129L37.21,35.336l-11.393-1.29v-3.59H36.2l1.741-2.085M17.627,21.944a2.374,2.374,0,0,1,1.72.731,2.432,2.432,0,1,1-1.72-.731m11.715,0a2.44,2.44,0,1,1-2.451,2.451,2.431,2.431,0,0,1,2.451-2.451Z" transform="translate(2.299 3.529)" fill="#fff"/>
</svg>
