<svg xmlns="http://www.w3.org/2000/svg" width="49.992" height="49.996" viewBox="0 0 49.992 49.996">
  <g id="loan" transform="translate(-0.504 -0.502)">
    <path id="Path_578" data-name="Path 578" d="M7.669,27.57a1.666,1.666,0,0,0-1.657-1.558H2.175A1.673,1.673,0,0,0,.5,27.683V41.73A1.673,1.673,0,0,0,2.175,43.4H6.012a1.668,1.668,0,0,0,1.521-.993L20.566,49.05a13.166,13.166,0,0,0,11.068.433c5-2.08,13.875-5.906,17.125-8.161a4.067,4.067,0,0,0,1.076-5.554l0-.007-.019-.028a4.05,4.05,0,0,0-4.564-1.453c-.858.284-2.657.875-4.615,1.5a14.18,14.18,0,0,0,.591-22.038,3.317,3.317,0,0,0,.272-.233,3.454,3.454,0,0,0-2.444-5.89H38.99l1.136-3.242a1.9,1.9,0,0,0-.238-1.746A1.977,1.977,0,0,0,38.281,1.8a1.575,1.575,0,0,0-1.343.661l-.165-.377a2.571,2.571,0,0,0-4.443-.536,1,1,0,0,0-.094.122.567.567,0,0,1-.485.26.576.576,0,0,1-.483-.259,2.576,2.576,0,0,0-4.515.381l-.087.4a2,2,0,0,0-3.053.181,1.894,1.894,0,0,0-.235,1.748l1.147,3.278A3.415,3.415,0,0,0,21.46,11.07a3.457,3.457,0,0,0,1.271,2.68,14.132,14.132,0,0,0-4.612,13.815ZM5.68,41.4H2.5V28.012H5.68Zm40.192-5.22a2.03,2.03,0,0,1,2.277.667h0l.015.023a2.055,2.055,0,0,1-.545,2.808c-3.1,2.15-11.827,5.909-16.755,7.959a11.282,11.282,0,0,1-9.391-.369L7.681,40.237V29.57h10.46c4.432,0,4,4.643,9.491,4.643h5.652a2.008,2.008,0,0,1,1.967,1.552A1.844,1.844,0,0,1,33.439,37.9H20.346a1,1,0,0,0,0,2H33.439C34.654,39.9,44.628,36.591,45.872,36.18ZM26.611,4.45a1.9,1.9,0,0,0,1.778-1.171l.193-.422a.562.562,0,0,1,.528-.35.568.568,0,0,1,.485.263,2.582,2.582,0,0,0,4.222.126,1,1,0,0,0,.1-.13A.558.558,0,0,1,34.4,2.5a.572.572,0,0,1,.536.367l.165.379a1.939,1.939,0,0,0,1.788,1.19,1.914,1.914,0,0,0,1.265-.476L36.871,7.62H26.63L25.35,3.962A1.9,1.9,0,0,0,26.611,4.45ZM23.9,10.039c.6-.61,1.34-.361,2.024-.419H39.051a1.456,1.456,0,0,1,.092,2.909H24.92l-.134-.005A1.458,1.458,0,0,1,23.46,11.07,1.422,1.422,0,0,1,23.9,10.039Zm1.089,4.491H38.978a12.187,12.187,0,0,1-1.732,21,3.879,3.879,0,0,0-3.807-3.313h-.154l-.023,0H27.63a5.018,5.018,0,0,1-3.113-1.09c-.015-.012-.031-.022-.046-.034-.929-.753-1.655-2.436-4.222-3.205A12.21,12.21,0,0,1,24.985,14.53Z" fill="#fff"/>
    <path id="Path_579" data-name="Path 579" d="M31.984,32.021a8.5,8.5,0,1,0-8.5-8.5A8.509,8.509,0,0,0,31.984,32.021Zm0-15a6.5,6.5,0,1,1-6.5,6.5A6.507,6.507,0,0,1,31.984,17.021Z" fill="#fff"/>
    <path id="Path_580" data-name="Path 580" d="M30.055,25.669a.418.418,0,0,0-.471.077.4.4,0,0,0,.16.659,5.79,5.79,0,0,0,2.074.465v.756a.2.2,0,0,0,.213.213.207.207,0,0,0,.223-.213V26.87c1.216-.069,2.277-.722,2.277-1.889,0-1.3-1.033-1.668-2.277-1.958V20.717a4.469,4.469,0,0,1,1.453.262.4.4,0,1,0,.271-.746,5.488,5.488,0,0,0-1.725-.32v-.746a.214.214,0,0,0-.223-.223.207.207,0,0,0-.213.223v.756c-1.514.081-2.277.959-2.277,1.977,0,1.244,1.1,1.621,2.277,1.928v2.219A4.646,4.646,0,0,1,30.055,25.669Zm2.2-1.735c.615.163,1.405.376,1.405.989q0,1.017-1.405,1.114Zm-1.841-2.1c0-.707.7-1.03,1.405-1.095v2.18C31.145,22.747,30.413,22.527,30.413,21.832Z" fill="#fff"/>
  </g>
</svg>
