<svg xmlns="http://www.w3.org/2000/svg" width="45.891" height="45.891" viewBox="0 0 45.891 45.891">
  <g id="security" opacity="0.997">
    <g id="Boundary" fill="#fff" stroke="rgba(0,0,0,0)" stroke-width="1" opacity="0">
      <rect width="45.891" height="45.891" stroke="none"/>
      <rect x="0.5" y="0.5" width="44.891" height="44.891" fill="none"/>
    </g>
    <path id="Path_shield-lock-outline" data-name="Path / shield-lock-outline" d="M37.418,20.121c0,10.612-7.342,20.536-17.209,22.945C10.343,40.657,3,30.733,3,20.121V8.648L20.209,1,37.418,8.648V20.121M20.209,39.242c7.17-1.912,13.385-10.44,13.385-18.7V11.134L20.209,5.168,6.824,11.134v9.408c0,8.26,6.214,16.788,13.385,18.7m5.354-19.121V17.253c0-2.677-2.677-4.78-5.354-4.78s-5.354,2.1-5.354,4.78v2.868a2.468,2.468,0,0,0-2.295,2.295v6.692a2.5,2.5,0,0,0,2.295,2.486H25.372A2.5,2.5,0,0,0,27.857,29.3V22.607a2.5,2.5,0,0,0-2.295-2.486m-2.486,0H17.341V17.253a2.628,2.628,0,0,1,2.868-2.486,2.628,2.628,0,0,1,2.868,2.486Z" transform="translate(2.736 0.912)" fill="#fff"/>
  </g>
</svg>
