<svg xmlns="http://www.w3.org/2000/svg" width="58.875" height="59.607" viewBox="0 0 58.875 59.607">
  <g id="finance" transform="translate(-0.5 -1016.862)">
    <path id="path10531-3" d="M29.9,1A12.767,12.767,0,1,0,42.7,13.767a.854.854,0,0,0-.066-.332h0A12.766,12.766,0,0,0,29.9,1Zm0,1.7A11.064,11.064,0,1,1,18.873,13.767,11.079,11.079,0,0,1,29.9,2.7ZM5.1,7.433V7.45A4.018,4.018,0,0,0,1.04,11.6L1,29.692a1.97,1.97,0,0,0,.12.682,3.665,3.665,0,0,0,.522,1.373s0,.017.007.017a1,1,0,0,0,.19.263l-.153-.2L13.853,53.107l-.02,6.131h1.7l.023-6.589L3.124,30.915s0,0,0-.017a2.377,2.377,0,0,1-.316-.761l0-.03-.007-.03a3.945,3.945,0,0,0-.093-.4l.04-18.116v-.017A2.249,2.249,0,0,1,5.069,9.132h.023A2.166,2.166,0,0,1,6.9,9.86a2.608,2.608,0,0,1,.559,1.672V24.538h1.7V11.532A4.26,4.26,0,0,0,8.2,8.756,4,4,0,0,0,5.1,7.433Zm20.579.376v.017h-.037v1.7h1.745a2.5,2.5,0,0,1,2.683,1.686H25.682v1.7h4.392A2.5,2.5,0,0,1,27.391,14.6h-.6l-.01-.01-.01.01H25.645v1.7H26.1L31.34,21.43l1.19-1.217-4.1-4.01a4.279,4.279,0,0,0,3.391-3.288H34.14v-1.7H31.819A4.213,4.213,0,0,0,31,9.511H34.14v-1.7Zm29.091.007a3.991,3.991,0,0,0-3.1,1.32,4.257,4.257,0,0,0-.961,2.776V24.921h1.7V11.911a2.606,2.606,0,0,1,.555-1.672,2.172,2.172,0,0,1,1.812-.725h.023a2.249,2.249,0,0,1,2.327,2.417v.017l.04,18.109s-.033.1-.093.4l-.007.027,0,.03a2.363,2.363,0,0,1-.309.751L44.32,53.017l.02,6.589h1.7l-.02-6.134L58.19,32.2l-.153.193a1,1,0,0,0,.19-.263v0l0,0v0l.007-.007a3.663,3.663,0,0,0,.519-1.37,1.941,1.941,0,0,0,.12-.678l-.04-18.093a4.021,4.021,0,0,0-4.063-4.149Zm-44.56,19.12a3,3,0,0,0-1.41.436,3.536,3.536,0,0,0-1.772,2.44A5.529,5.529,0,0,0,8.095,33.4l4.5,7.381,1.453-.888L9.551,32.518a4.113,4.113,0,0,1-.834-2.467c.068-.48.336-.827.991-1.237a2.53,2.53,0,0,1,1.639-.053,3.156,3.156,0,0,1,1.878,1.37l2.247,3.687a11.253,11.253,0,0,0,2.274,2.444,13.909,13.909,0,0,1,2,1.985l3.355,5.5a10.374,10.374,0,0,1,1.426,6.227l.02,9.262h1.7l-.02-9.259a12.378,12.378,0,0,0-1.676-7.111l-3.384-5.559-.017-.02a13.825,13.825,0,0,0-2.281-2.3,10.619,10.619,0,0,1-1.948-2.048l-2.247-3.69A4.846,4.846,0,0,0,11.8,27.122v0A4.823,4.823,0,0,0,10.213,26.935Zm39.45.362a4.823,4.823,0,0,0-1.583.183v0a4.851,4.851,0,0,0-2.886,2.124L42.947,33.3A10.59,10.59,0,0,1,41,35.347a13.794,13.794,0,0,0-2.281,2.3l-.017.023L35.32,43.226a12.379,12.379,0,0,0-1.676,7.111l-.02,9.259h1.7l.02-9.262a10.385,10.385,0,0,1,1.426-6.23h0l3.351-5.5a13.9,13.9,0,0,1,2-1.988A11.242,11.242,0,0,0,44.4,34.18l2.247-3.69a3.156,3.156,0,0,1,1.878-1.37,2.527,2.527,0,0,1,1.639.057c.655.41.923.753.991,1.233a4.121,4.121,0,0,1-.834,2.47l-4.495,7.377,1.453.884,4.495-7.377a5.538,5.538,0,0,0,1.064-3.594,3.531,3.531,0,0,0-1.772-2.437,2.991,2.991,0,0,0-1.406-.436Z" transform="translate(0 1016.362)" fill="#fff" stroke="#fff" stroke-width="1"/>
  </g>
</svg>
