<svg xmlns="http://www.w3.org/2000/svg" width="57" height="57" viewBox="0 0 57 57">
  <g id="transaction" transform="translate(-3 -3)">
    <path id="XMLID_379_" d="M20.357,9.714H32.571a1.282,1.282,0,0,0,1.357-1.357A1.282,1.282,0,0,0,32.571,7H20.357A1.282,1.282,0,0,0,19,8.357,1.282,1.282,0,0,0,20.357,9.714Z" transform="translate(5.714 1.429)" fill="#fff"/>
    <path id="XMLID_380_" d="M21.786,37.714a1.357,1.357,0,1,0,0-2.714H16.357a1.357,1.357,0,1,0,0,2.714Z" transform="translate(4.286 11.429)" fill="#fff"/>
    <path id="XMLID_381_" d="M37.786,35H32.357a1.357,1.357,0,1,0,0,2.714h5.429a1.357,1.357,0,0,0,0-2.714Z" transform="translate(10 11.429)" fill="#fff"/>
    <path id="XMLID_382_" d="M16.357,13.714H43.5a1.282,1.282,0,0,0,1.357-1.357A1.282,1.282,0,0,0,43.5,11H16.357A1.282,1.282,0,0,0,15,12.357,1.282,1.282,0,0,0,16.357,13.714Z" transform="translate(4.286 2.857)" fill="#fff"/>
    <path id="XMLID_383_" d="M16.357,17.714H43.5A1.357,1.357,0,0,0,43.5,15H16.357a1.357,1.357,0,0,0,0,2.714Z" transform="translate(4.286 4.286)" fill="#fff"/>
    <path id="XMLID_384_" d="M16.357,21.714H43.5A1.357,1.357,0,1,0,43.5,19H16.357a1.357,1.357,0,1,0,0,2.714Z" transform="translate(4.286 5.714)" fill="#fff"/>
    <path id="XMLID_385_" d="M16.357,25.714H43.5A1.357,1.357,0,1,0,43.5,23H16.357a1.357,1.357,0,1,0,0,2.714Z" transform="translate(4.286 7.143)" fill="#fff"/>
    <path id="XMLID_386_" d="M16.357,29.714H43.5A1.357,1.357,0,1,0,43.5,27H16.357a1.357,1.357,0,1,0,0,2.714Z" transform="translate(4.286 8.571)" fill="#fff"/>
    <path id="XMLID_405_" d="M16.357,33.714H43.5A1.357,1.357,0,0,0,43.5,31H16.357a1.357,1.357,0,0,0,0,2.714Z" transform="translate(4.286 10)" fill="#fff"/>
    <path id="XMLID_462_" d="M58.643,51.857H54.571V9.786A6.72,6.72,0,0,0,47.786,3a1.037,1.037,0,0,0-.679.271A1.037,1.037,0,0,0,46.429,3H9.786A6.72,6.72,0,0,0,3,9.786a1.282,1.282,0,0,0,1.357,1.357h9.5V53.214A6.72,6.72,0,0,0,20.643,60H53.214A6.72,6.72,0,0,0,60,53.214,1.282,1.282,0,0,0,58.643,51.857ZM9.786,5.714a3.953,3.953,0,0,1,3.8,2.714h-7.6A3.953,3.953,0,0,1,9.786,5.714Zm6.786,47.5V9.786a6.978,6.978,0,0,0-1.357-4.071H46.429a1.037,1.037,0,0,0,.679-.271,1.037,1.037,0,0,0,.679.271,4,4,0,0,1,4.071,4.071V51.857H26.071a1.282,1.282,0,0,0-1.357,1.357,4.071,4.071,0,0,1-8.143,0Zm36.643,4.071H26.071a7,7,0,0,0,1.221-2.714H57.014A3.953,3.953,0,0,1,53.214,57.286Z" transform="translate(0 0)" fill="#fff"/>
  </g>
</svg>
